<svg xmlns="http://www.w3.org/2000/svg" viewBox="0 0 256 256"><rect width="252" height="59" x="2" y="196.76" rx="29.5" ry="29.5" style="fill:#ff807d"/><path d="M220.63 114.95c0-33.55-27.3-60.85-60.85-60.85-11.64 0-22.52 3.29-31.78 8.98a60.5 60.5 0 0 0-31.78-8.98c-33.55 0-60.85 27.3-60.85 60.85 0 22.81 12.63 42.72 31.25 53.14.16 33.42 27.39 60.56 60.84 60.56s60.35-26.82 60.83-59.96c19.22-10.24 32.34-30.48 32.34-53.73Zm-49.34 43.35c-3.68.98-7.53 1.5-11.51 1.5a44.5 44.5 0 0 1-18.49-4.01 60.8 60.8 0 0 0 13.3-23.68c8.35 6.36 14.41 15.58 16.7 26.18ZM128 146.57c-5.93-5.97-10.2-13.59-12.04-22.11 3.68-.98 7.53-1.5 11.51-1.5 4.34 0 8.54.63 12.51 1.79A44.8 44.8 0 0 1 128 146.57m-26.77-15.11a60.9 60.9 0 0 0 13.49 24.33 44.5 44.5 0 0 1-18.49 4.01c-4.34 0-8.54-.63-12.51-1.79 2.43-10.85 8.79-20.23 17.52-26.55Zm26.24-24.51c-4.11 0-8.13.42-12.02 1.2 1.47-9.61 6-18.22 12.55-24.81 6.61 6.65 11.15 15.35 12.58 25.05-4.23-.93-8.61-1.44-13.12-1.44Zm-76.1 8c0-24.73 20.12-44.85 44.85-44.85 6.59 0 12.85 1.44 18.49 4.01-9.62 10.6-15.54 24.6-15.76 39.95-14.29 7.62-25.2 20.77-29.86 36.57-10.76-8.2-17.73-21.14-17.73-35.69Zm76.1 97.7c-22.5 0-41.18-16.66-44.36-38.29 4.23.93 8.61 1.44 13.12 1.44 11.64 0 22.52-3.29 31.78-8.98a60.5 60.5 0 0 0 31.78 8.98c4.11 0 8.13-.42 12.02-1.2-3.29 21.51-21.92 38.04-44.33 38.04Zm58.55-61.36c-4.43-15.69-15-28.83-28.96-36.63-.07-15.59-6.03-29.81-15.77-40.55a44.5 44.5 0 0 1 18.49-4.01c24.73 0 44.85 20.12 44.85 44.85 0 14.94-7.35 28.18-18.61 36.34"/></svg>