<svg xmlns="http://www.w3.org/2000/svg" viewBox="0 0 256 256"><rect width="252" height="59" x="2" y="196.76" rx="29.5" ry="29.5" style="fill:#ff807d"/><path d="M128 229.25c-51.83 0-94-42.17-94-94s42.17-94 94-94c31.27 0 60.41 15.49 77.94 41.44a9.007 9.007 0 0 1-2.42 12.5 9.007 9.007 0 0 1-12.5-2.42c-14.18-20.99-37.74-33.51-63.03-33.51-41.91 0-76 34.09-76 76s34.09 76 76 76 76-34.09 76-76a9 9 0 0 1 18 0c0 51.83-42.17 94-94 94Z"/><path d="M160.08 178.25c-2.15 0-4.31-.77-6.03-2.32l-40.15-36.26V88.5a9 9 0 0 1 18 0v43.18l34.21 30.89c3.69 3.33 3.98 9.02.65 12.71a8.97 8.97 0 0 1-6.68 2.97"/></svg>